<?xml version="1.0" encoding="UTF-8"?>
<svg version="1.1" xmlns="http://www.w3.org/2000/svg" width="2000" height="1734">
<path d="M0 0 C1.89808839 -0.00302639 3.79617555 -0.00691829 5.6942606 -0.01159257 C10.87211305 -0.02181894 16.04989585 -0.01970447 21.22775388 -0.01541197 C26.82717196 -0.01293488 32.4265737 -0.02197121 38.02598572 -0.02944946 C48.98253714 -0.04217237 59.93906403 -0.04399307 70.8956216 -0.0416492 C79.80811289 -0.03986277 88.72059676 -0.04162265 97.63308716 -0.04587364 C98.90385571 -0.04646883 100.17462427 -0.04706402 101.48390096 -0.04767724 C104.06592314 -0.04888906 106.64794531 -0.0501032 109.22996747 -0.05131962 C126.5568823 -0.05910203 143.88379275 -0.06302946 161.21070862 -0.05900288 C161.88743693 -0.0588465 162.56416525 -0.05869012 163.26140048 -0.05852901 C166.69076417 -0.05772331 170.12012785 -0.05687754 173.54949152 -0.05601571 C174.57098035 -0.05575908 174.57098035 -0.05575908 175.61310531 -0.05549726 C176.99023708 -0.0551506 178.36736885 -0.05480207 179.74450062 -0.05445167 C201.1556925 -0.04909872 222.56684315 -0.05701569 243.97802734 -0.07548523 C268.07583712 -0.09624831 292.173615 -0.10688846 316.27143669 -0.10290974 C329.01463142 -0.10100213 341.75778862 -0.103442 354.50097656 -0.11762428 C365.35268742 -0.12957981 376.20433765 -0.13089659 387.05604941 -0.11883412 C392.58396978 -0.11297391 398.11177951 -0.11176607 403.63969231 -0.12383652 C446.73152141 -0.21158368 446.73152141 -0.21158368 464.84960938 3.26069641 C466.05801483 3.48660808 467.26642029 3.71251974 468.51144409 3.94527721 C471.2175953 4.48588895 473.86939995 5.11858091 476.53710938 5.82319641 C477.50874023 6.07512756 478.48037109 6.32705872 479.48144531 6.58662415 C509.04698247 14.54927792 537.19021694 27.30928641 563.84960938 42.26069641 C564.68459961 42.72830383 565.51958984 43.19591125 566.37988281 43.6776886 C577.48986103 49.96408806 587.42792547 56.65408487 596.84960938 65.26069641 C598.13982238 66.3457606 599.4313271 67.4292923 600.72460938 68.51069641 C642.3947605 105.52152684 663.23216018 157.29417702 667.84960938 212.26069641 C668.32864239 221.26117091 668.26178804 230.2717142 668.23779297 239.28193665 C668.2418703 241.89512856 668.24721862 244.50831874 668.25372314 247.12150574 C668.2669117 253.41923708 668.26425017 259.71685987 668.25548522 266.01459508 C668.24864887 271.14348796 668.2478173 276.27235088 668.25105667 281.40124702 C668.25151637 282.13734937 668.25197607 282.87345171 668.2524497 283.63186019 C668.25340909 285.12827309 668.25438173 286.62468599 668.25536747 288.12109888 C668.26387793 302.08207445 668.25415633 316.04299047 668.23796637 330.00395627 C668.22456999 341.92395736 668.22689418 353.84387073 668.24072266 365.76387024 C668.25686078 379.6808305 668.26305144 393.59773884 668.25388587 407.51470715 C668.25293044 409.0052481 668.25198733 410.49578906 668.25105667 411.98633003 C668.25059384 412.71927819 668.25013102 413.45222634 668.24965417 414.20738504 C668.24708861 419.31603896 668.25138201 424.42465932 668.25849533 429.53330803 C668.26790148 436.43895168 668.2609872 443.34442934 668.24381256 450.25005722 C668.23989333 452.763226 668.24090182 455.27640886 668.24760056 457.78957176 C668.33877992 495.51664129 662.51915615 533.12453028 645.84960938 567.26069641 C645.33358154 568.32949036 645.33358154 568.32949036 644.80712891 569.4198761 C632.78618029 594.04460721 615.25959292 615.25040844 593.84960938 632.26069641 C592.90601563 633.03284485 591.96242188 633.80499329 590.99023438 634.60054016 C574.65804849 647.65359546 556.06709019 657.55280372 537.81738281 667.62251282 C534.1067429 669.67075186 530.40332029 671.73182129 526.69995117 673.79316711 C523.4183793 675.61906651 520.13415113 677.44014581 516.84960938 679.26069641 C516.84960938 682.63740928 519.0884398 685.30302947 520.78710938 688.13569641 C521.22531006 688.87328186 521.66351074 689.61086731 522.11499023 690.37080383 C528.17087523 700.53008531 534.33243971 710.62644846 540.48271179 720.72877502 C544.09157226 726.65671497 547.6933781 732.58892419 551.29415894 738.52177429 C553.06232502 741.43494103 554.83099341 744.34780279 556.59960938 747.26069641 C557.3079451 748.42736163 558.01627843 749.59402829 558.72460938 750.76069641 C559.07523438 751.33819641 559.42585937 751.91569641 559.78710938 752.51069641 C562.97460937 757.76069641 562.97460937 757.76069641 564.03703308 759.51057434 C564.74561648 760.67765049 565.45420413 761.84472405 566.16279602 763.01179504 C567.92983813 765.92217557 569.69680722 768.83260038 571.46362305 771.74311829 C574.69628523 777.06819436 577.92956144 782.39289375 581.16543579 787.71601868 C588.22802886 799.33431535 595.28118813 810.95756945 602.26416016 822.62397766 C608.67459884 833.3231662 615.16523489 843.97392738 621.64404297 854.63179016 C624.86220283 859.92615358 628.0770843 865.22250717 631.29214478 870.51875305 C633.06115883 873.43281966 634.83039561 876.34675104 636.59960938 879.26069641 C637.30794377 880.42736243 638.0162771 881.5940291 638.72460938 882.76069641 C639.07523438 883.33819641 639.42585937 883.91569641 639.78710938 884.51069641 C642.97460936 889.76069638 642.97460936 889.76069638 644.03703308 891.51057434 C644.74561648 892.67765049 645.45420413 893.84472405 646.16279602 895.01179504 C647.92983813 897.92217557 649.69680722 900.83260038 651.46362305 903.74311829 C654.69628523 909.06819436 657.92956144 914.39289375 661.16543579 919.71601868 C668.22802886 931.33431535 675.28118813 942.95756945 682.26416016 954.62397766 C688.67459884 965.3231662 695.16523489 975.97392738 701.64404297 986.63179016 C704.86220283 991.92615358 708.0770843 997.22250717 711.29214478 1002.51875305 C713.06115883 1005.43281966 714.83039561 1008.34675104 716.59960938 1011.26069641 C717.30794377 1012.42736243 718.0162771 1013.5940291 718.72460938 1014.76069641 C719.07523438 1015.33819641 719.42585937 1015.91569641 719.78710938 1016.51069641 C722.97460938 1021.76069642 722.97460938 1021.76069642 724.03695679 1023.51049805 C724.74573611 1024.67786396 725.45457813 1025.84519181 726.16348267 1027.01248169 C727.92800692 1029.91814192 729.69145799 1032.82444255 731.45263672 1035.73213196 C735.09474822 1041.74244462 738.75722497 1047.73911763 742.45117188 1053.71772766 C770.88375427 1099.80642925 770.88375427 1099.80642925 765.78710938 1124.13569641 C762.58699087 1135.56041854 756.83375041 1145.54345394 748.84960938 1154.26069641 C748.39344238 1154.75924133 747.93727539 1155.25778625 747.46728516 1155.7714386 C739.39449754 1164.48231798 730.56989921 1171.48129621 720.84960938 1178.26069641 C719.79966797 1179.12307922 719.79966797 1179.12307922 718.72851562 1180.00288391 C716.84960938 1181.26069641 716.84960938 1181.26069641 714.64648438 1181.65522766 C710.37741938 1182.57939676 706.89289932 1184.83379062 703.09960938 1186.94819641 C694.26880926 1191.72944756 685.45724928 1195.36829113 675.84960938 1198.26069641 C674.975625 1198.52624329 674.10164062 1198.79179016 673.20117188 1199.06538391 C657.10430345 1203.07586649 640.20963851 1200.37719024 625.95898438 1192.28022766 C617.29174919 1186.65088019 608.62407845 1178.71823576 603.72851562 1169.48725891 C599.88101996 1162.4230519 595.71485852 1155.5459057 591.59960938 1148.63569641 C590.78309215 1147.26206445 589.96668531 1145.88836688 589.15039062 1144.51460266 C585.22601306 1137.91346047 581.28889845 1131.32015066 577.33398438 1124.73725891 C572.23996722 1116.25798072 567.19598608 1107.74920305 562.15185547 1099.2401886 C557.5279527 1091.44124367 552.88955751 1083.65156415 548.21955872 1075.88012695 C544.36851343 1069.4675972 540.55266408 1063.03433496 536.73852539 1056.59980774 C531.1307337 1047.14029161 525.51943991 1037.68320586 519.84960938 1028.26069641 C514.22311576 1018.9100911 508.65757126 1009.52359608 503.09033203 1000.13764954 C498.36228003 992.16724141 493.62765188 984.2012828 488.84960938 976.26069641 C483.22312212 966.91008723 477.65757129 957.52359614 472.09033203 948.13764954 C467.36228001 940.16724138 462.62764647 932.20128607 457.84960938 924.26069641 C452.71001862 915.71913807 447.62207362 907.14733289 442.53710938 898.57319641 C436.83240314 888.95419782 431.11270154 879.34488379 425.34960938 869.76069641 C419.16787759 859.48029934 413.03798605 849.1697748 406.91894531 838.852005 C401.79824582 830.2181732 396.66109697 821.59498356 391.4855957 812.99385071 C386.31843877 804.39616443 381.20764372 795.7650521 376.09033203 787.13764954 C371.36228003 779.16724141 366.62765188 771.2012828 361.84960938 763.26069641 C356.64734252 754.61509533 351.49710885 745.93896492 346.34960938 737.26069641 C339.96087578 726.48990259 333.55395225 715.73064137 327.09960938 704.99897766 C326.70902344 704.3475177 326.3184375 703.69605774 325.91601562 703.02485657 C324.97166667 701.46261629 324.00592707 699.91335032 323.03710938 698.36616516 C321.84960938 696.26069641 321.84960938 696.26069641 321.84960938 694.26069641 C320.89214624 694.26622717 320.89214624 694.26622717 319.91534042 694.27186966 C304.33901928 694.3604477 288.76278651 694.42651587 273.18627548 694.4679451 C265.65338815 694.48851571 258.12066959 694.51653009 250.58789062 694.56245422 C244.01753374 694.60249158 237.44729916 694.62816915 230.87682366 694.63705039 C227.40208039 694.6422368 223.92768683 694.65430949 220.45305634 694.68361664 C216.56141413 694.71617077 212.670105 694.71664506 208.77832031 694.71479797 C207.64327057 694.72917908 206.50822083 694.74356018 205.33877563 694.75837708 C192.59584198 694.69329825 182.36042455 690.7310372 172.84960938 682.26069641 C155.54242097 664.44359084 152.47760372 639.88058883 152.54711914 616.15718079 C152.87526895 594.94801943 156.63932362 573.97048202 171.66210938 557.94819641 C182.99928547 547.32773835 197.58847278 543.10787772 212.8976593 543.11593628 C213.69116749 543.11240943 214.48467569 543.10888259 215.30222958 543.10524887 C217.95255033 543.09460253 220.60283507 543.09088786 223.25317383 543.08711243 C225.15748749 543.08080359 227.06179968 543.07403742 228.96611023 543.06684875 C233.06499741 543.05219561 237.16387897 543.04046361 241.26278114 543.03090096 C247.75791183 543.01540937 254.25299436 542.99145681 260.74809265 542.96600342 C279.21752875 542.89491581 297.68699286 542.83519127 316.15649414 542.78388977 C326.35891785 542.75547622 336.56129403 542.72003197 346.76366776 542.67723602 C353.20506233 542.65063419 359.64640318 542.63262416 366.08784163 542.62119877 C370.11921406 542.61199281 374.150522 542.59459369 378.18185616 542.57501984 C380.03398867 542.56762336 381.88613783 542.56346813 383.73828506 542.56302452 C411.73850158 542.55091643 439.82392854 539.25885789 461.09179688 519.13960266 C483.18269696 495.71637202 489.34168757 463.94753525 489.23779297 432.95014954 C489.24186939 430.87820155 489.24721721 428.80625575 489.25372314 426.73431396 C489.26727536 421.16197963 489.2621486 415.58981392 489.25258589 410.01747704 C489.24492601 404.15229758 489.25205231 398.28713139 489.25674438 392.42195129 C489.26218366 382.57732077 489.25505852 372.73275802 489.24072266 362.88813782 C489.22439974 351.54890589 489.22968954 340.20983586 489.24620187 328.87060785 C489.25986905 319.08913884 489.26171094 309.30771822 489.25388587 299.52624273 C489.249238 293.70426631 489.24850422 287.88236567 489.25849533 282.06039429 C489.26723931 276.5838072 489.26100908 271.10742637 489.24381256 265.63086128 C489.23988705 263.63561404 489.24091307 261.64034907 489.24760056 259.64510918 C489.2945541 244.19767549 488.37636374 228.77272315 483.16210938 214.07319641 C482.90864746 213.33963928 482.65518555 212.60608215 482.39404297 211.85029602 C478.39954564 200.752207 472.71059837 190.86329369 465.51367188 181.53022766 C463.84960937 179.26069641 463.84960937 179.26069641 462.87304688 177.08491516 C461.55573872 174.73688879 460.27562562 174.34837528 457.84960938 173.26069641 C456.53905907 172.22157807 455.24884256 171.15654253 453.97460938 170.07319641 C436.72633378 156.60498121 415.58540338 153.11890341 394.28356934 153.10247803 C392.90722973 153.09790641 391.53089149 153.09290552 390.15455484 153.08751446 C386.38731013 153.07399219 382.62007438 153.06653222 378.85281181 153.0600878 C374.78473745 153.05205775 370.7166816 153.038369 366.64862061 153.02537537 C359.60532717 153.00364947 352.56203183 152.98549083 345.51872253 152.96977043 C335.33534001 152.94703633 325.15197803 152.91889846 314.96861297 152.88945115 C298.44588127 152.84181859 281.92314116 152.79854269 265.40039062 152.75801086 C249.35220688 152.71863386 233.30403061 152.67720236 217.25585938 152.63301086 C216.26627863 152.63028659 215.27669789 152.62756232 214.25712985 152.62475549 C209.29258317 152.61107565 204.32803661 152.59735545 199.3634901 152.58361518 C158.1922121 152.46971853 117.02091798 152.36289415 75.84960938 152.26069641 C75.85054526 153.5393731 75.85054526 153.5393731 75.85150005 154.84388163 C75.91572579 242.77790621 75.97738819 330.71193475 76.01898193 433.26144409 C76.01953974 434.66169107 76.02009754 436.06193805 76.02065535 437.46218503 C76.03234663 466.85511862 76.04321344 496.24805247 76.05312809 525.64098671 C76.05810958 540.40650018 76.06324947 555.1720136 76.06853914 569.93752697 C76.06933614 572.16481923 76.07012861 574.39211148 76.0709209 576.61940374 C76.08315773 610.90787924 76.09878712 645.19634905 76.12426758 679.4848175 C76.12481517 680.22179185 76.12536277 680.95876619 76.12592696 681.71807308 C76.13477621 693.5999325 76.14391073 705.48179169 76.15308314 717.36365086 C76.17950503 751.59600674 76.20380998 785.82835824 76.21416855 820.0607233 C76.21438269 820.76500786 76.21459683 821.46929241 76.21481746 822.19491891 C76.21948102 837.6574164 76.2230602 853.11991393 76.22561331 868.5824119 C76.22665976 874.80444347 76.22786225 881.02647501 76.22911835 887.24850655 C76.22925206 887.92947153 76.22938576 888.61043652 76.22952352 889.31203681 C76.23390586 911.23578481 76.2509784 933.15950029 76.27473821 955.08323517 C76.29928848 977.79163304 76.30966125 1000.50000469 76.30361488 1023.20841735 C76.30057203 1036.29786792 76.30868845 1049.38720071 76.33279955 1062.47663002 C76.3478108 1071.22338149 76.34825575 1079.97005593 76.33693663 1088.71681273 C76.33090424 1093.69868392 76.33112916 1098.68033254 76.3491421 1103.66217976 C76.36543374 1108.2025892 76.36298872 1112.74260423 76.34616928 1117.28300823 C76.3433337 1118.90751296 76.34707324 1120.53204747 76.35855035 1122.15651413 C76.49325064 1142.52860557 72.19209625 1160.63497631 57.64257812 1175.75679016 C36.80422186 1194.43844942 6.00072247 1197.38369554 -20.81762695 1196.13667297 C-42.57731942 1194.70210157 -64.24858151 1191.28895593 -81.15039062 1176.26069641 C-82.03210938 1175.51626282 -82.03210938 1175.51626282 -82.93164062 1174.75679016 C-96.34985524 1162.54503782 -100.35501138 1144.51892744 -101.26236584 1127.11260961 C-101.43869345 1121.74034411 -101.41805013 1116.36808268 -101.40207291 1110.99361706 C-101.40416381 1109.19513464 -101.40712973 1107.39665307 -101.41088164 1105.59817335 C-101.41862905 1100.67905985 -101.41403133 1095.76002545 -101.40732573 1090.84091332 C-101.40223423 1085.48044022 -101.40877933 1080.11997889 -101.4138124 1074.75950748 C-101.42102528 1065.37201741 -101.42082308 1055.98455037 -101.41571808 1046.59705925 C-101.40814729 1032.63726816 -101.41202366 1018.67749645 -101.41813469 1004.71770549 C-101.42805353 981.22834218 -101.42842654 957.73898856 -101.42298126 934.24962425 C-101.42281567 933.53496518 -101.42265008 932.8203061 -101.42247947 932.08399069 C-101.42231361 931.36817989 -101.42214775 930.65236908 -101.42197687 929.91486703 C-101.41692717 908.09255403 -101.41562926 886.27024476 -101.41802216 864.44793129 C-101.41817712 862.98566071 -101.41833143 861.52339013 -101.4184851 860.06111955 C-101.41910605 854.18458031 -101.41974339 848.30804108 -101.42040462 842.43150185 C-101.42223851 826.00463933 -101.42337981 809.5777768 -101.4239769 793.15091419 C-101.42400419 792.4029113 -101.42403148 791.65490841 -101.4240596 790.88423876 C-101.42487798 767.05465199 -101.4226253 743.22506652 -101.41827774 719.39548016 C-101.41813724 718.62275759 -101.41799674 717.85003503 -101.41785199 717.05389663 C-101.4155622 704.506033 -101.41312322 691.95816939 -101.41067164 679.41030579 C-101.40096074 629.65413356 -101.40140869 579.8979721 -101.41113281 530.14179993 C-101.41357529 517.60378108 -101.41599743 505.06576222 -101.41827774 492.52774334 C-101.41841864 491.75568245 -101.41855953 490.98362156 -101.4187047 490.18816489 C-101.4230187 466.3857291 -101.4248453 442.58329421 -101.4239769 418.78085804 C-101.42394973 418.03336658 -101.42392256 417.28587513 -101.42389457 416.51573241 C-101.42326954 400.10516162 -101.42200212 383.69459093 -101.42015589 367.28402023 C-101.41949764 361.41184279 -101.41887147 355.53966534 -101.41825447 349.66748789 C-101.41809969 348.2067009 -101.41794223 346.74591391 -101.41778208 345.28512691 C-101.41539715 323.47192816 -101.41742342 301.65873362 -101.42247947 279.8455354 C-101.42264506 279.13112471 -101.42281065 278.41671402 -101.42298126 277.68065453 C-101.42314663 276.96756719 -101.42331199 276.25447986 -101.42348237 275.51978382 C-101.42900502 251.44159799 -101.42695331 227.36342453 -101.41641977 203.28524002 C-101.41054968 189.40965374 -101.41016029 175.53409312 -101.41771212 161.65850751 C-101.42220186 152.38574545 -101.41939674 143.11300394 -101.41070259 133.84024493 C-101.40595297 128.55991845 -101.40430182 123.27964292 -101.41151455 117.99931809 C-101.41802215 113.18599325 -101.41516323 108.37276409 -101.40515323 103.55944609 C-101.40315583 101.83839432 -101.40442586 100.11733444 -101.40956511 98.39628918 C-101.48107067 72.59852784 -99.91393498 43.02984691 -80.74414062 23.49897766 C-58.24027434 4.07922559 -28.69782416 -0.06547061 0 0 Z " fill="#FFFFFF" transform="translate(252.150390625,150.7393035888672)"/>
<path d="M0 0 C2.5087987 2.19423985 4.85624113 4.47070908 7.1796875 6.859375 C7.85257813 7.51164062 8.52546875 8.16390625 9.21875 8.8359375 C19.86775533 19.82435336 26.30218428 34.84192367 33.22143555 48.28515625 C36.78017779 55.19755891 40.42938387 62.04915608 44.1796875 68.859375 C49.03435125 77.68377947 53.70199395 86.59495637 58.32421875 95.54296875 C61.85700989 102.36403804 65.47744624 109.12891529 69.1796875 115.859375 C74.0338932 124.68403919 78.70198685 133.59494263 83.32421875 142.54296875 C86.85700989 149.36403804 90.47744624 156.12891529 94.1796875 162.859375 C98.45797785 170.63705852 102.60572868 178.47277143 106.6796875 186.359375 C111.24814907 195.20291692 115.93508582 203.96909556 120.73046875 212.69140625 C124.82464084 220.15788324 128.7644991 227.69854019 132.68212891 235.25878906 C136.0792716 241.7967697 139.56759968 248.2780381 143.1171875 254.734375 C147.99074034 263.60117925 152.68050447 272.55338416 157.32397461 281.54248047 C160.8568347 288.36371935 164.47735844 295.12875568 168.1796875 301.859375 C173.0338932 310.68403919 177.70198685 319.59494263 182.32421875 328.54296875 C185.85700989 335.36403804 189.47744624 342.12891529 193.1796875 348.859375 C197.45797785 356.63705852 201.60572868 364.47277143 205.6796875 372.359375 C210.24814907 381.20291692 214.93508582 389.96909556 219.73046875 398.69140625 C223.82464084 406.15788324 227.7644991 413.69854019 231.68212891 421.25878906 C235.0792716 427.7967697 238.56759968 434.2780381 242.1171875 440.734375 C246.99074034 449.60117925 251.68050447 458.55338416 256.32397461 467.54248047 C260.32302122 475.26383131 264.4532729 482.90403354 268.64477539 490.5222168 C273.13618987 498.71401608 277.44928107 506.99451962 281.72851562 515.29882812 C284.48131225 520.63346189 287.28963844 525.91121118 290.29907227 531.10620117 C291.1796875 532.859375 291.1796875 532.859375 291.1796875 534.859375 C294.34483171 532.18248078 295.94936498 528.76122469 297.76953125 525.12109375 C298.10985382 524.45293137 298.45017639 523.78476898 298.80081177 523.09635925 C299.5308996 521.66219237 300.25852301 520.22676876 300.98391724 518.79022217 C302.89826581 515.00070382 304.83183167 511.22102976 306.765625 507.44140625 C307.14878372 506.69181641 307.53194244 505.94222656 307.92671204 505.16992188 C310.93352629 499.30273057 314.04733223 493.5014496 317.2421875 487.734375 C322.05726255 479.02682902 326.63953111 470.21210834 331.1796875 461.359375 C335.71986211 452.50660612 340.30306286 443.69247303 345.1171875 434.984375 C350.55015157 425.15401184 355.6771402 415.17700589 360.79519653 405.18060303 C365.10802126 396.7615049 369.4692873 388.38437369 374.0546875 380.109375 C379.51815728 370.23904078 384.66629738 360.2138543 389.8046875 350.171875 C390.22196106 349.35651276 390.63923462 348.54115051 391.06915283 347.70108032 C392.69824722 344.51740999 394.32719534 341.33366489 395.95584106 338.14976501 C401.32286454 327.66331568 406.8094533 317.24448485 412.40625 306.87890625 C420.78524386 291.34230612 428.93374313 275.70206698 436.95068359 259.97558594 C442.25534834 249.57432197 447.64897046 239.22387483 453.10299683 228.900177 C455.4359812 224.47814633 457.74495929 220.04358161 460.0546875 215.609375 C460.54952637 214.66030273 461.04436523 213.71123047 461.55419922 212.73339844 C463.09637638 209.77557174 464.63809776 206.8175079 466.1796875 203.859375 C472.20705444 192.29355301 478.23757376 180.72980321 484.32519531 169.19555664 C486.65738354 164.77076959 488.97147749 160.33715226 491.26953125 155.89453125 C496.39229905 145.9935385 501.54530401 136.1209845 506.9296875 126.359375 C512.02516255 117.11556157 516.86896818 107.75319293 521.6796875 98.359375 C526.83018772 88.30465804 532.02843314 78.29210029 537.50952148 68.41210938 C540.61007718 62.80352765 543.5959811 57.14535911 546.53125 51.44921875 C547.71188492 49.17195182 548.8935699 46.89523237 550.07546997 44.61862183 C550.83720128 43.14359553 551.59384994 41.66593019 552.34469604 40.18533325 C562.87394558 19.43211184 578.03808814 -1.09733714 600.671875 -9.36328125 C625.5684094 -17.08043132 654.0468532 -9.63899886 676.56225586 2.00610352 C696.9060818 12.93755396 713.87602725 26.24004365 721.0546875 49.171875 C726.25183165 72.68276521 720.18525959 93.22193848 709.640625 113.97998047 C708.26968628 116.68199439 706.92296039 119.39435855 705.5859375 122.11328125 C701.35276296 130.69964946 696.97760036 139.20430938 692.49194336 147.66113281 C687.97964043 156.18867156 683.58448398 164.77600584 679.1796875 173.359375 C673.67980264 184.0736637 668.15944522 194.77446385 662.5234375 205.41796875 C660.77876079 208.71471825 659.05352807 212.02108916 657.3359375 215.33203125 C652.52439748 224.60444105 647.66695806 233.83929984 642.6171875 242.984375 C635.73887937 255.46558973 629.30246663 268.17367028 622.81390381 280.86001587 C622.21572845 282.02952286 622.21572845 282.02952286 621.60546875 283.22265625 C621.21329163 283.98951752 620.8211145 284.75637878 620.41705322 285.54647827 C616.82911716 292.55644589 613.17551674 299.53011104 609.48828125 306.48828125 C607.7558656 309.75860368 606.04402085 313.03909228 604.33984375 316.32421875 C599.52712377 325.59930146 594.66836723 334.83674786 589.6171875 343.984375 C584.05999711 354.06832082 578.79931362 364.29823453 573.5546875 374.546875 C573.13786713 375.36133087 572.72104675 376.17578674 572.29159546 377.0149231 C570.66201259 380.19955712 569.03259348 383.38427485 567.40345764 386.56913757 C562.01256843 397.10220081 556.49680109 407.56470792 550.8828125 417.98046875 C549.64799674 420.27320017 548.41363831 422.56617795 547.1796875 424.859375 C546.86758331 425.43937256 546.55547913 426.01937012 546.23391724 426.61694336 C539.8494262 438.49540806 533.67949025 450.48089595 527.53027344 462.48242188 C526.77671918 463.95313857 526.023139 465.42384197 525.26953125 466.89453125 C524.72668991 467.95397446 524.72668991 467.95397446 524.17288208 469.03482056 C521.0923529 475.04144747 517.96205736 481.02064996 514.8034668 486.98657227 C511.22226392 493.75686431 507.70045302 500.55749192 504.1796875 507.359375 C499.76946487 515.87770172 495.33935241 524.38452459 490.86279297 532.86816406 C486.11473093 541.86917455 481.41525213 550.89548527 476.71191406 559.91992188 C474.20260842 564.73382244 471.69104913 569.5465468 469.1796875 574.359375 C468.17967637 576.27603586 467.17967638 578.19270253 466.1796875 580.109375 C456.1796875 599.27604167 446.1796875 618.44270833 436.1796875 637.609375 C435.68452637 638.55844727 435.18936523 639.50751953 434.67919922 640.48535156 C433.68087134 642.39878625 432.68249906 644.31219777 431.68408203 646.22558594 C429.15813099 651.06651136 426.63299306 655.90785791 424.109375 660.75 C419.52450597 669.54534364 414.93355328 678.33709598 410.3046875 687.109375 C405.61736239 695.99404759 400.99864624 704.9138766 396.38061523 713.8347168 C391.94680426 722.39439286 387.47413951 730.93278164 382.97265625 739.45703125 C380.55579132 744.04328256 380.05381527 746.16213819 380.04940224 751.3729887 C380.04745881 752.05290541 380.04551538 752.73282212 380.04351306 753.43334237 C380.03815675 755.7343629 380.03996072 758.03532411 380.04165649 760.33634949 C380.03924013 761.99380524 380.03637839 763.6512604 380.03310716 765.30871469 C380.02532867 769.88147565 380.02373339 774.45422162 380.02305603 779.02698839 C380.02122069 783.95230785 380.01361603 788.87761845 380.00657654 793.80293274 C379.9950343 802.34579038 379.9867984 810.88864603 379.98045731 819.43150902 C379.97014033 832.94078755 379.94957744 846.4500414 379.92733765 859.95930481 C379.91985715 864.58009235 379.91244347 869.20087999 379.90505028 873.82166767 C379.90319971 874.97662503 379.90134915 876.13158238 379.8994425 877.32153844 C379.87850105 890.47892361 379.85968156 903.63631152 379.84179688 916.79370117 C379.84015869 917.99684388 379.83852051 919.19998659 379.83683269 920.43958817 C379.81057892 939.91296772 379.79191967 959.38634918 379.77520497 978.85973891 C379.75776689 998.8532063 379.72890006 1018.84663661 379.6903156 1038.84007436 C379.66694575 1051.17002666 379.65292373 1063.49991846 379.65098797 1075.82989309 C379.64887397 1084.28944986 379.63590607 1092.74894659 379.61450864 1101.20847639 C379.60251433 1106.08520032 379.59530503 1110.96180508 379.60122108 1115.83854294 C379.60655026 1120.31181444 379.59792703 1124.78484372 379.57866471 1129.25807492 C379.57412254 1130.86795552 379.57451331 1132.4778601 379.58061309 1134.08773556 C379.62556426 1147.12525737 378.86258523 1160.44411524 372.5546875 1172.171875 C372.03745117 1173.16550049 372.03745117 1173.16550049 371.50976562 1174.17919922 C363.19362407 1189.50135411 349.36820016 1198.60919519 333.1171875 1204.046875 C301.5469262 1212.90285205 263.12112299 1212.50014772 233.4296875 1197.671875 C219.34874932 1189.63796549 209.49971292 1177.71173458 204.99355984 1162.03804004 C202.18651132 1151.07481326 201.90320426 1140.20569261 201.96850586 1128.97262573 C201.97066799 1127.29615433 201.9719148 1125.61968155 201.97233391 1123.94320881 C201.97517019 1120.31997239 201.98433999 1116.69682771 201.99848366 1113.07361794 C202.02146569 1107.17610241 202.03044552 1101.27861063 202.0377655 1095.38105774 C202.04804581 1087.92536633 202.0620614 1080.46969749 202.08048493 1073.01402171 C202.11664748 1058.35724786 202.12796693 1043.70054633 202.13037109 1029.04373169 C202.13087576 1026.73205403 202.13139462 1024.42037638 202.13192749 1022.10869873 C202.13271485 1018.60591705 202.13348646 1015.10313537 202.13419867 1011.60035368 C202.13697329 998.41130184 202.14242814 985.22225257 202.15087891 972.03320312 C202.1516424 970.82835833 202.15240589 969.62351354 202.15319252 968.38215829 C202.16650357 948.86360207 202.20927895 929.34520231 202.26113904 909.82671545 C202.31359092 889.75601005 202.32772377 869.68551966 202.30826473 849.6147548 C202.29760926 837.25230019 202.31743751 824.89066696 202.37704974 812.52834804 C202.41520925 804.04912525 202.41654375 795.57038794 202.38950509 787.09112458 C202.37504673 782.20725877 202.37643466 777.32481855 202.42220116 772.44111443 C203.17473369 745.5732388 203.17473369 745.5732388 192.39620686 721.56344819 C190.45668111 718.84660377 189.00899181 715.93569726 187.484375 712.96875 C186.34124435 710.8489052 185.19801395 708.7291142 184.0546875 706.609375 C178.23409727 695.79696477 172.5712423 684.90937206 166.96591187 673.98406982 C162.87118884 666.00790206 158.70967384 658.07930827 154.3671875 650.234375 C148.47268536 639.5808672 142.95838323 628.73898938 137.42224121 617.89672852 C132.33457205 607.93778115 127.16979242 598.04291891 121.74609375 588.26171875 C117.04060763 579.7216514 112.61776025 571.04026491 108.1796875 562.359375 C103.29034288 552.79592807 98.3850536 543.25606291 93.1796875 533.859375 C87.94043514 524.39698457 82.98646627 514.79680011 78.0546875 505.171875 C77.66090912 504.40350311 77.26713074 503.63513123 76.86141968 502.84347534 C75.32254014 499.840312 73.78383237 496.83706076 72.24546814 493.83363342 C66.87764362 483.35929729 61.38560103 472.95420724 55.80859375 462.58984375 C54.55703598 460.2631578 53.3056449 457.93638366 52.0546875 455.609375 C51.73945129 455.0231134 51.42421509 454.43685181 51.09942627 453.83282471 C45.92597167 444.20308989 40.86785268 434.51735561 35.8671875 424.796875 C35.52662323 424.13493134 35.18605896 423.47298767 34.83517456 422.79098511 C33.5073475 420.209766 32.17966029 417.628475 30.85218811 415.04707336 C25.59916226 404.83735147 20.24158777 394.6850383 14.80078125 384.57421875 C13.55189423 382.25270559 12.30314975 379.93111655 11.0546875 377.609375 C10.58110809 376.72903091 10.58110809 376.72903091 10.09796143 375.8309021 C4.60322775 365.6080081 -0.73622513 355.31008987 -6.03408813 344.98406982 C-10.12881116 337.00790206 -14.29032616 329.07930827 -18.6328125 321.234375 C-24.52731464 310.5808672 -30.04161677 299.73898938 -35.57775879 288.89672852 C-40.66542795 278.93778115 -45.83020758 269.04291891 -51.25390625 259.26171875 C-56.37891734 249.96024834 -61.1743986 240.4908358 -66.00811768 231.03601074 C-70.48227778 222.28918139 -74.99286265 213.57757516 -79.7578125 204.984375 C-85.16900563 195.22270558 -90.24539483 185.29839678 -95.3203125 175.359375 C-100.4164746 165.37887021 -105.51805882 155.41535952 -110.9453125 145.609375 C-115.59234102 137.17399897 -120.15091345 128.69408135 -124.61541748 120.1607666 C-125.36089352 118.74055051 -126.11089694 117.322699 -126.86602783 115.90759277 C-138.64908973 93.79881094 -145.22734141 69.13878349 -138.0078125 44.48046875 C-131.19019191 23.69121123 -114.62469796 11.38163743 -95.8203125 1.859375 C-67.11938982 -12.20970475 -27.45689579 -20.83985996 0 0 Z " fill="#FFFFFF" transform="translate(1213.8203125,139.140625)"/>
</svg>
